<svg xmlns="http://www.w3.org/2000/svg" width="24" height="24" fill="currentColor" viewBox="0 0 24 24">
  <path d="M12 0.297c-6.63 0-12 5.373-12 12 0 5.303 
  3.438 9.8 8.205 11.385 0.6 0.113 0.82-0.258 
  0.82-0.577 0-0.285-0.01-1.04-0.015-2.04-3.338 
  0.724-4.042-1.61-4.042-1.61-0.546-1.387-1.333-1.757-1.333-1.757-1.09-0.745 
  0.082-0.729 0.082-0.729 1.205 0.084 1.84 
  1.236 1.84 1.236 1.07 1.835 2.809 1.305 
  3.495 0.998 0.108-0.776 0.418-1.305 
  0.762-1.605-2.665-0.3-5.466-1.334-5.466-5.931 
  0-1.31 0.469-2.381 1.236-3.221-0.124-0.303-0.535-1.524 
  0.117-3.176 0 0 1.008-0.322 3.3 1.23 0.957-0.266 
  1.98-0.399 3-0.404 1.02 0.005 2.043 0.138 
  3 0.404 2.291-1.552 3.297-1.23 3.297-1.23 0.653 
  1.653 0.242 2.874 0.118 3.176 0.77 0.84 
  1.234 1.911 1.234 3.221 0 4.609-2.803 
  5.628-5.475 5.921 0.43 0.372 0.823 1.102 
  0.823 2.222 0 1.606-0.015 2.896-0.015 
  3.286 0 0.319 0.216 0.694 0.825 
  0.576C20.565 22.092 24 17.592 24 12.297c0-6.627-5.373-12-12-12"/>
</svg>
