<svg width="24" height="24" viewBox="0 0 24 24" fill="black" xmlns="http://www.w3.org/2000/svg">
  <path d="M12 0.5C5.65 0.5 0.5 5.65 0.5 12C0.5 17.1 3.87 21.4 8.21 22.9C8.79 23 9 22.65 9 22.35V20.29C5.67 21.09 4.97 18.66 4.97 18.66C4.45 17.3 3.69 16.95 3.69 16.95C2.61 16.24 3.77 16.26 3.77 16.26C4.96 16.34 5.55 17.48 5.55 17.48C6.62 19.3 8.4 18.74 9.07 18.44C9.18 17.67 9.48 17.14 9.82 16.85C7.15 16.55 4.31 15.55 4.31 11.42C4.31 10.24 4.74 9.29 5.45 8.55C5.33 8.25 4.95 6.96 5.57 5.33C5.57 5.33 6.46 5.01 9 6.67C9.84 6.43 10.74 6.3 11.65 6.29C12.56 6.3 13.46 6.43 14.3 6.67C16.84 5.01 17.73 5.33 17.73 5.33C18.35 6.96 17.97 8.25 17.85 8.55C18.56 9.29 18.99 10.24 18.99 11.42C18.99 15.56 16.14 16.54 13.46 16.84C13.89 17.21 14.27 17.95 14.27 19.06V22.35C14.27 22.66 14.48 23.01 15.06 22.9C19.4 21.4 22.77 17.1 22.77 12C22.77 5.65 17.62 0.5 11.27 0.5H12Z" fill="black"/>
</svg>
