<svg width="24" height="24" viewBox="0 0 24 24" fill="#ED5F44" xmlns="http://www.w3.org/2000/svg">
  <rect width="24" height="24" rx="4" fill="#ED5F44"/>
  <path d="M6.94 9H4.5V19.5H6.94V9ZM5.75 7.74C6.64 7.74 7.37 7.01 7.37 6.12C7.37 5.23 6.64 4.5 5.75 4.5C4.86 4.5 4.13 5.23 4.13 6.12C4.13 7.01 4.86 7.74 5.75 7.74ZM19.5 19.5H17.06V13.95C17.06 12.75 16.03 12 14.96 12C13.79 12 13.07 12.83 13.07 13.95V19.5H10.63V9H13.07V10.32C13.57 9.49 14.45 9 15.48 9C17.59 9 19.5 10.5 19.5 13.47V19.5Z" fill="white"/>
</svg>
